<?xml version="1.0" standalone="no"?>
<!DOCTYPE svg PUBLIC "-//W3C//DTD SVG 20010904//EN"
 "http://www.w3.org/TR/2001/REC-SVG-20010904/DTD/svg10.dtd">
<svg version="1.0" xmlns="http://www.w3.org/2000/svg"
 width="1600.000000pt" height="1600.000000pt" viewBox="0 0 1600.000000 1600.000000"
 preserveAspectRatio="xMidYMid meet">
<metadata>
Created by potrace 1.14, written by Peter Selinger 2001-2017
</metadata>
<g transform="translate(0.000000,1600.000000) scale(0.100000,-0.100000)"
fill="#000000" stroke="none">
<path d="M2456 11470 c-28 -3 -60 -6 -73 -5 -13 0 -23 -3 -23 -8 0 -4 -4 -6
-9 -3 -8 6 -100 -5 -186 -20 -16 -3 -41 -7 -55 -9 -40 -6 -83 -15 -102 -21
-10 -3 -30 -7 -45 -10 -16 -3 -46 -10 -68 -16 -22 -6 -47 -12 -55 -14 -34 -5
-168 -48 -264 -84 -128 -47 -230 -96 -366 -173 -89 -51 -129 -76 -205 -129
-80 -56 -258 -218 -335 -305 -66 -73 -177 -228 -219 -303 -17 -31 -74 -143
-76 -150 -1 -3 -7 -18 -14 -35 -35 -81 -86 -243 -97 -305 -2 -14 -7 -38 -11
-55 -9 -43 -11 -52 -19 -130 -9 -86 -10 -393 -1 -455 4 -25 9 -63 13 -85 8
-56 60 -252 79 -300 57 -136 93 -208 160 -310 86 -133 207 -269 320 -360 28
-22 52 -43 55 -46 3 -3 34 -25 70 -49 36 -24 66 -47 68 -52 2 -4 8 -8 13 -8 5
0 39 -19 76 -41 90 -55 307 -161 358 -175 6 -1 57 -21 115 -43 58 -23 113 -41
122 -41 9 0 19 -4 22 -9 3 -4 20 -12 38 -16 43 -10 46 -11 96 -29 23 -8 42
-13 42 -9 0 3 6 1 12 -4 11 -9 63 -25 70 -22 2 0 16 -5 32 -11 27 -10 508
-142 586 -160 19 -5 53 -14 75 -20 22 -6 51 -13 65 -16 14 -3 43 -10 65 -16
41 -10 59 -14 109 -23 16 -3 37 -10 47 -16 11 -5 19 -8 19 -5 0 7 162 -37 315
-85 72 -23 130 -40 131 -38 0 2 8 -2 16 -9 9 -7 24 -14 34 -16 11 -3 33 -10
49 -17 17 -7 32 -13 35 -13 43 -8 257 -115 288 -144 8 -7 26 -19 40 -26 15 -8
36 -23 46 -35 11 -12 23 -21 28 -21 13 0 138 -129 149 -154 5 -12 18 -35 28
-53 18 -29 45 -99 58 -148 3 -11 6 -71 7 -134 4 -155 -17 -243 -85 -360 -43
-74 -189 -231 -216 -231 -4 0 -16 -9 -27 -19 -58 -53 -283 -146 -426 -176
-112 -24 -129 -27 -270 -42 -94 -10 -445 -10 -525 0 -311 38 -556 122 -758
259 -68 46 -247 221 -247 242 0 4 -8 15 -17 26 -10 10 -34 50 -53 87 -19 37
-39 71 -43 74 -5 3 -8 9 -7 13 1 3 -8 31 -19 61 -11 30 -23 65 -26 77 -2 13
-11 52 -19 88 -19 86 -28 162 -29 233 l0 57 -710 0 -710 0 6 -172 c3 -95 8
-180 10 -188 3 -8 9 -40 12 -70 9 -69 13 -95 15 -95 1 0 3 -11 6 -25 2 -14 8
-41 14 -60 7 -27 47 -164 55 -190 1 -3 5 -14 9 -25 4 -11 13 -33 19 -50 39
-110 184 -389 216 -415 3 -3 22 -27 40 -55 19 -27 37 -52 40 -55 4 -3 31 -34
61 -70 95 -112 201 -213 322 -304 99 -76 120 -90 148 -103 8 -4 17 -9 20 -12
21 -24 293 -167 405 -212 116 -47 237 -88 355 -120 53 -14 43 -12 144 -33 44
-9 82 -19 85 -21 4 -2 27 -6 51 -10 25 -3 52 -8 60 -10 15 -4 61 -11 130 -21
19 -3 49 -7 65 -9 17 -3 57 -7 90 -10 33 -3 78 -9 100 -12 22 -4 193 -7 380
-6 306 0 416 4 510 17 17 3 50 7 75 11 79 11 197 30 250 40 131 26 399 95 445
114 21 9 116 44 125 47 29 6 301 134 310 144 3 4 25 17 50 31 25 13 47 26 50
30 3 3 23 16 45 29 219 132 452 363 600 595 46 72 145 269 145 288 0 7 4 17 8
22 9 11 44 113 63 185 58 213 73 333 72 575 0 175 -6 260 -24 354 -6 30 -13
64 -15 75 -1 12 -5 28 -7 36 -2 8 -7 29 -11 45 -22 88 -58 180 -108 280 -17
33 -36 70 -42 82 -6 13 -14 23 -18 23 -5 0 -8 5 -8 10 0 11 -120 174 -165 225
-53 60 -154 161 -192 192 -21 17 -51 43 -68 57 -37 33 -231 166 -241 166 -4 0
-15 7 -24 15 -17 15 -295 156 -314 159 -6 1 -36 11 -66 23 -67 26 -92 35 -105
39 -71 22 -255 75 -270 78 -11 2 -32 9 -47 15 -16 6 -28 8 -28 6 0 -2 -11 0
-25 5 -14 5 -36 12 -48 14 -12 2 -62 14 -112 26 -49 12 -97 23 -105 25 -8 2
-51 13 -95 25 -44 12 -87 23 -95 25 -8 1 -71 17 -140 35 -69 18 -129 33 -135
34 -5 1 -19 5 -30 9 -11 3 -31 8 -45 11 -14 3 -43 10 -65 16 -22 6 -47 12 -55
15 -8 2 -87 22 -175 45 -88 23 -198 53 -245 66 -47 14 -92 27 -100 29 -14 3
-164 56 -219 76 -14 6 -26 10 -26 9 0 -1 -93 40 -174 76 -122 56 -235 168
-276 274 -35 92 -42 142 -40 272 2 93 7 127 29 193 45 132 144 260 271 350 96
68 277 142 390 159 22 3 50 8 63 10 89 19 309 24 462 11 47 -4 102 -8 122 -9
21 0 38 -3 38 -6 0 -4 10 -6 23 -7 12 0 36 -3 52 -7 17 -4 41 -9 55 -11 224
-37 462 -168 598 -329 108 -128 188 -337 208 -541 3 -33 7 -67 10 -75 3 -13
89 -15 709 -15 l705 0 1 40 c2 80 -8 254 -17 296 -2 13 -7 42 -10 64 -3 22
-12 67 -20 100 -8 33 -17 68 -19 78 -10 44 -58 195 -72 227 -9 19 -24 55 -35
80 -36 81 -63 135 -70 138 -5 2 -8 8 -8 14 0 5 -13 29 -30 53 -16 24 -30 48
-30 54 0 6 -4 11 -8 11 -4 0 -15 13 -24 28 -41 69 -154 199 -259 297 -160 150
-382 295 -594 388 -87 39 -134 58 -150 63 -5 2 -48 16 -95 33 -75 26 -195 60
-270 75 -14 3 -54 12 -90 19 -36 8 -87 18 -115 22 -27 5 -57 10 -65 11 -8 2
-33 5 -55 9 -22 3 -49 7 -60 9 -11 2 -54 7 -95 10 -41 4 -93 10 -115 13 -60 8
-562 10 -619 3z"/>
<path d="M13497 11324 c-2 -2 -64 -7 -138 -9 -74 -3 -145 -7 -159 -9 -191 -29
-205 -32 -295 -56 -22 -6 -53 -13 -70 -16 -16 -3 -36 -11 -42 -16 -7 -6 -13
-8 -13 -5 0 14 -186 -61 -339 -136 -93 -46 -331 -194 -356 -222 -5 -6 -27 -23
-47 -38 -77 -56 -320 -309 -352 -366 -5 -9 -12 -18 -16 -21 -8 -6 -108 -153
-133 -195 -48 -84 -148 -301 -177 -385 -17 -52 -35 -102 -38 -110 -3 -8 -6
-19 -7 -25 0 -5 -3 -14 -7 -20 -3 -5 -12 -37 -19 -70 -15 -72 -16 -74 -19 -77
-1 -2 -3 -12 -5 -23 -1 -11 -10 -60 -19 -110 -43 -246 -52 -572 -20 -790 3
-22 7 -53 9 -70 2 -16 6 -43 9 -60 6 -29 27 -130 32 -150 33 -148 90 -311 158
-450 22 -44 39 -83 38 -87 -1 -5 2 -8 6 -8 5 0 14 -12 21 -26 10 -24 96 -156
121 -188 88 -110 188 -213 290 -296 30 -25 57 -47 60 -51 7 -8 190 -129 232
-153 35 -21 203 -102 256 -124 38 -16 199 -72 227 -78 43 -11 50 -13 53 -14 3
-3 9 -5 62 -15 25 -5 47 -9 50 -10 31 -7 141 -23 218 -30 46 -5 297 -5 337 -1
17 2 59 7 95 10 36 4 81 11 100 16 19 5 51 11 70 14 121 20 416 122 450 156 3
3 19 12 35 20 17 8 35 19 40 23 6 5 24 17 40 27 63 41 69 45 81 55 6 6 31 26
54 45 61 50 168 157 215 215 21 28 42 52 45 55 3 3 16 22 29 43 33 54 53 45
45 -22 -2 -17 -6 -60 -10 -94 -10 -114 -12 -132 -18 -162 -3 -16 -8 -57 -12
-90 -3 -33 -8 -63 -10 -67 -2 -3 -7 -28 -10 -55 -3 -26 -7 -55 -9 -63 -3 -8
-7 -33 -10 -55 -4 -22 -13 -69 -21 -105 -9 -36 -18 -75 -20 -87 -2 -12 -9 -35
-15 -50 -6 -16 -10 -30 -10 -33 1 -5 -17 -65 -26 -90 -3 -8 -7 -22 -9 -30 -2
-8 -7 -23 -12 -35 -6 -11 -16 -36 -23 -55 -35 -97 -130 -291 -165 -337 -13
-17 -24 -34 -24 -37 0 -34 -269 -319 -330 -351 -19 -10 -37 -21 -40 -25 -11
-16 -200 -95 -200 -84 0 2 -8 0 -17 -5 -32 -16 -85 -23 -223 -27 -149 -4 -226
8 -338 52 -137 54 -287 178 -382 314 -13 19 -27 37 -30 40 -35 32 -138 269
-155 358 -2 12 -6 25 -8 30 -3 4 -286 7 -629 7 l-623 0 1 -40 c0 -22 6 -65 12
-95 6 -30 13 -66 16 -80 5 -34 35 -152 43 -170 3 -8 7 -17 8 -20 40 -132 82
-233 153 -370 29 -58 58 -106 63 -108 5 -2 9 -9 9 -15 0 -7 18 -36 40 -65 22
-29 40 -56 40 -61 0 -5 3 -11 8 -13 4 -1 29 -30 57 -63 68 -83 208 -217 280
-271 33 -24 65 -48 70 -52 12 -9 91 -61 120 -79 57 -34 181 -95 265 -130 86
-36 337 -111 400 -119 46 -6 85 -13 120 -19 19 -4 44 -9 55 -11 85 -15 534
-23 640 -11 28 4 68 8 90 11 22 2 63 10 90 16 28 6 61 14 75 16 48 9 175 46
245 70 39 14 75 27 80 28 32 9 242 109 290 139 82 51 174 114 194 134 13 12
30 23 37 23 8 0 14 4 14 8 0 4 22 24 48 45 60 45 242 224 302 296 106 127 253
342 311 455 89 173 130 256 129 258 0 2 12 32 28 68 29 63 100 249 108 280 2
8 17 60 34 114 17 55 32 109 34 120 2 12 9 41 16 66 7 25 14 56 16 70 3 14 7
33 10 42 3 9 7 27 9 40 3 13 7 34 10 48 9 42 14 72 21 115 3 22 10 59 15 82 5
24 11 67 14 96 3 30 8 65 10 78 3 13 8 51 11 84 3 33 7 71 10 85 25 153 25
883 0 1090 -3 19 -7 67 -11 105 -3 39 -8 86 -10 105 -10 78 -16 127 -21 156
-3 17 -7 46 -9 65 -2 19 -6 45 -9 59 -3 14 -7 41 -10 60 -9 55 -27 152 -41
220 -20 100 -48 201 -82 305 -15 44 -28 82 -28 85 -3 19 -29 87 -36 95 -5 5
-9 15 -9 22 0 14 -18 56 -88 203 -25 52 -46 97 -46 100 -1 3 -11 21 -24 41
-12 20 -22 40 -22 44 0 4 -13 27 -30 52 -16 24 -30 48 -30 54 0 5 -4 9 -10 9
-5 0 -10 5 -10 11 0 6 -8 21 -17 34 -10 12 -25 33 -33 45 -16 25 -118 156
-153 197 -101 119 -295 288 -443 385 -196 130 -348 197 -604 269 -44 12 -182
39 -235 45 -22 3 -51 7 -65 10 -26 5 -91 10 -228 19 -46 3 -87 7 -92 10 -5 3
-10 1 -12 -5 -2 -6 -14 -7 -35 -1 -17 5 -33 7 -36 5z m188 -1105 c110 -21 177
-38 192 -51 7 -6 13 -8 13 -5 0 19 206 -103 273 -162 69 -60 157 -156 157
-171 0 -5 4 -10 8 -10 5 0 14 -10 21 -22 6 -13 20 -36 31 -53 29 -46 100 -185
93 -185 -3 0 -1 -6 4 -12 18 -24 54 -144 77 -258 3 -14 7 -35 10 -48 21 -97
21 -367 0 -464 -3 -13 -7 -39 -10 -58 -3 -19 -7 -44 -9 -55 -15 -94 -130 -383
-156 -393 -5 -2 -9 -9 -9 -16 0 -7 -8 -21 -18 -32 -10 -10 -23 -27 -28 -36
-32 -56 -142 -161 -259 -246 -21 -15 -122 -62 -134 -62 -7 0 -22 -5 -34 -12
-23 -13 -26 -14 -71 -23 -16 -3 -33 -8 -38 -11 -22 -14 -186 -30 -284 -28
-186 3 -279 28 -459 121 -39 20 -160 117 -194 155 -14 17 -36 41 -48 54 -19
21 -51 67 -90 129 -31 49 -67 124 -90 185 -13 36 -27 72 -30 80 -8 19 -7 16
-32 125 -32 142 -42 234 -43 374 0 90 14 256 22 256 1 0 3 16 5 35 1 19 5 42
8 50 7 18 37 128 38 135 0 10 67 162 89 200 92 164 205 286 350 380 68 45 171
95 194 95 7 0 16 3 20 7 3 4 12 8 19 9 7 1 41 9 77 17 75 16 263 20 335 6z"/>
<path d="M6836 11171 c-3 -9 -8 -36 -11 -61 -4 -24 -9 -49 -12 -54 -3 -4 -7
-25 -8 -45 -2 -20 -14 -97 -28 -171 -14 -74 -28 -151 -31 -170 -3 -19 -10 -60
-16 -90 -6 -30 -13 -70 -16 -89 -3 -18 -8 -43 -10 -55 -2 -11 -7 -37 -10 -56
-2 -19 -9 -57 -15 -85 -5 -27 -12 -66 -15 -85 -3 -19 -12 -73 -21 -120 -9 -47
-17 -92 -18 -100 -2 -19 -16 -98 -22 -125 -2 -11 -6 -33 -8 -50 -3 -16 -7 -41
-10 -55 -3 -14 -16 -88 -30 -165 -14 -77 -27 -151 -30 -165 -2 -13 -7 -40 -10
-60 -3 -20 -8 -47 -10 -60 -5 -24 -21 -114 -31 -175 -5 -27 -45 -253 -59 -330
-2 -16 -7 -43 -10 -60 -3 -16 -10 -55 -16 -85 -5 -30 -12 -73 -15 -95 -3 -22
-8 -47 -11 -55 -3 -8 -7 -28 -10 -45 -2 -16 -18 -106 -34 -200 -17 -93 -32
-186 -35 -205 -2 -19 -6 -42 -9 -50 -2 -8 -7 -31 -10 -50 -9 -51 -14 -82 -20
-110 -3 -14 -7 -41 -10 -60 -3 -20 -9 -60 -15 -90 -6 -30 -13 -71 -16 -90 l-5
-35 588 1 c323 1 593 2 600 3 6 1 19 14 30 30 26 40 101 128 146 170 91 85
108 99 178 147 108 74 275 137 424 160 63 10 345 11 405 2 71 -11 183 -37 210
-49 14 -7 34 -15 45 -19 54 -20 190 -92 205 -109 3 -4 23 -18 45 -33 69 -47
201 -192 250 -276 6 -9 12 -19 15 -22 3 -3 20 -36 39 -75 47 -98 52 -109 54
-125 2 -8 6 -20 9 -26 7 -10 23 -68 33 -119 34 -160 38 -193 38 -330 1 -137
-4 -217 -18 -285 -3 -14 -7 -34 -9 -45 -25 -124 -130 -393 -157 -403 -5 -2 -9
-8 -9 -13 0 -33 -180 -242 -270 -314 -130 -102 -326 -190 -470 -211 -25 -3
-56 -8 -70 -10 -39 -6 -240 -5 -285 2 -184 26 -313 75 -460 172 -75 50 -235
205 -235 228 0 8 -4 14 -8 14 -9 0 -79 115 -109 180 -23 50 -54 137 -58 160
-1 8 -5 22 -8 30 -4 8 -12 53 -19 100 l-13 85 -661 1 -662 1 4 -86 c4 -92 8
-140 19 -211 4 -25 8 -54 10 -66 8 -60 78 -313 94 -339 3 -5 6 -12 7 -15 10
-42 122 -273 136 -278 4 -2 8 -8 8 -13 0 -12 52 -93 63 -97 4 -2 7 -10 7 -18
0 -8 5 -14 10 -14 6 0 10 -5 10 -11 0 -5 13 -24 30 -42 16 -18 30 -35 30 -38
0 -13 167 -186 245 -254 32 -27 94 -76 139 -107 44 -32 86 -61 92 -65 10 -8
23 -16 93 -55 52 -30 226 -120 226 -117 0 1 16 -5 35 -14 55 -25 278 -100 333
-111 7 -2 23 -6 37 -9 14 -4 36 -9 50 -11 14 -3 40 -9 59 -15 18 -6 36 -10 40
-9 3 1 22 -2 41 -5 53 -10 90 -16 145 -23 28 -3 61 -8 75 -10 160 -26 644 -26
795 1 17 3 44 7 60 10 51 9 78 14 126 25 26 6 53 13 60 14 50 10 255 75 304
96 112 48 309 151 376 195 113 73 217 148 229 164 3 3 25 22 50 42 51 41 190
176 190 185 0 3 11 15 24 27 37 35 126 145 126 157 0 5 3 10 8 10 4 0 18 18
32 40 14 22 28 40 31 40 4 0 10 8 13 18 8 22 29 58 47 79 9 10 26 41 40 68 13
28 27 52 31 55 19 14 155 343 173 417 3 10 12 43 20 73 8 30 18 68 21 84 3 16
7 32 9 35 2 4 6 25 9 47 4 22 9 51 11 64 19 94 39 460 25 460 -3 0 -5 28 -4
63 0 34 -3 92 -7 127 -16 149 -21 185 -25 192 -2 4 -7 26 -10 50 -12 89 -61
271 -109 405 -36 101 -152 345 -167 351 -4 2 -8 8 -8 13 0 10 -89 148 -106
164 -5 6 -23 28 -39 50 -63 87 -212 235 -315 313 -41 31 -76 60 -78 65 -2 4
-10 7 -17 7 -7 0 -15 4 -17 8 -8 22 -314 182 -373 197 -11 2 -37 12 -70 25
-41 16 -208 58 -280 70 -130 22 -177 25 -380 25 -209 0 -309 -7 -395 -26 -25
-6 -56 -13 -70 -15 -14 -3 -33 -7 -42 -10 -9 -3 -25 -6 -35 -8 -81 -16 -283
-99 -382 -157 -46 -26 -186 -122 -196 -133 -5 -6 -23 -22 -40 -35 -16 -12 -51
-43 -77 -67 -49 -47 -69 -50 -63 -11 14 80 27 155 30 172 1 11 8 47 14 80 6
33 13 76 16 95 11 61 54 304 59 325 5 24 15 89 21 130 2 17 7 41 10 55 3 14 7
37 10 53 3 15 8 42 11 60 3 17 7 41 8 52 4 26 17 104 23 130 9 46 24 126 28
152 2 15 10 58 16 95 l12 67 1256 0 c691 0 1297 0 1348 1 l92 0 -2 543 -2 542
-1822 1 c-1655 1 -1823 -1 -1827 -15z"/>
</g>
</svg>
